<svg width="48" height="48" viewBox="0 0 48 48" fill="none" xmlns="http://www.w3.org/2000/svg" xmlns:xlink="http://www.w3.org/1999/xlink">
<mask id="mask_0_16_67" style="mask-type:alpha" maskUnits="userSpaceOnUse" x="0" y="0" width="24" height="24">
<rect  x="0" y="0" width="48" height="48" fill="#D9D9D9"/>
</mask>
<g mask="url(#mask_0_16_67)">
<path d="M32,16.8L14.2,34.6C13.833,34.967 13.367,35.15 12.8,35.15C12.233,35.15 11.767,34.967 11.4,34.6C11.033,34.233 10.85,33.767 10.85,33.2C10.85,32.633 11.033,32.167 11.4,31.8L29.2,14L14,14C13.433,14 12.958,13.808 12.575,13.425C12.192,13.042 12,12.567 12,12C12,11.433 12.192,10.958 12.575,10.575C12.958,10.192 13.433,10 14,10L34,10C34.567,10 35.042,10.192 35.425,10.575C35.808,10.958 36,11.433 36,12L36,32C36,32.567 35.808,33.042 35.425,33.425C35.042,33.808 34.567,34 34,34C33.433,34 32.958,33.808 32.575,33.425C32.192,33.042 32,32.567 32,32L32,16.8Z" fill="#0A0A0A"/>
<path d="M32,16.8L14.2,34.6C13.833,34.967 13.367,35.15 12.8,35.15C12.233,35.15 11.767,34.967 11.4,34.6C11.033,34.233 10.85,33.767 10.85,33.2C10.85,32.633 11.033,32.167 11.4,31.8L29.2,14L14,14C13.433,14 12.958,13.808 12.575,13.425C12.192,13.042 12,12.567 12,12C12,11.433 12.192,10.958 12.575,10.575C12.958,10.192 13.433,10 14,10L34,10C34.567,10 35.042,10.192 35.425,10.575C35.808,10.958 36,11.433 36,12L36,32C36,32.567 35.808,33.042 35.425,33.425C35.042,33.808 34.567,34 34,34C33.433,34 32.958,33.808 32.575,33.425C32.192,33.042 32,32.567 32,32L32,16.8Z" fill="#000000" fill-opacity="0.2"/>
<path d="M32,16.8L14.2,34.6C13.833,34.967 13.367,35.15 12.8,35.15C12.233,35.15 11.767,34.967 11.4,34.6C11.033,34.233 10.85,33.767 10.85,33.2C10.85,32.633 11.033,32.167 11.4,31.8L29.2,14L14,14C13.433,14 12.958,13.808 12.575,13.425C12.192,13.042 12,12.567 12,12C12,11.433 12.192,10.958 12.575,10.575C12.958,10.192 13.433,10 14,10L34,10C34.567,10 35.042,10.192 35.425,10.575C35.808,10.958 36,11.433 36,12L36,32C36,32.567 35.808,33.042 35.425,33.425C35.042,33.808 34.567,34 34,34C33.433,34 32.958,33.808 32.575,33.425C32.192,33.042 32,32.567 32,32L32,16.8Z" fill="#000000" fill-opacity="0.2"/>
<path d="M32,16.8L14.2,34.6C13.833,34.967 13.367,35.15 12.8,35.15C12.233,35.15 11.767,34.967 11.4,34.6C11.033,34.233 10.85,33.767 10.85,33.2C10.85,32.633 11.033,32.167 11.4,31.8L29.2,14L14,14C13.433,14 12.958,13.808 12.575,13.425C12.192,13.042 12,12.567 12,12C12,11.433 12.192,10.958 12.575,10.575C12.958,10.192 13.433,10 14,10L34,10C34.567,10 35.042,10.192 35.425,10.575C35.808,10.958 36,11.433 36,12L36,32C36,32.567 35.808,33.042 35.425,33.425C35.042,33.808 34.567,34 34,34C33.433,34 32.958,33.808 32.575,33.425C32.192,33.042 32,32.567 32,32L32,16.8Z" fill="#000000" fill-opacity="0.2"/>
<path d="M32,16.8L14.2,34.6C13.833,34.967 13.367,35.15 12.8,35.15C12.233,35.15 11.767,34.967 11.4,34.6C11.033,34.233 10.85,33.767 10.85,33.2C10.85,32.633 11.033,32.167 11.4,31.8L29.2,14L14,14C13.433,14 12.958,13.808 12.575,13.425C12.192,13.042 12,12.567 12,12C12,11.433 12.192,10.958 12.575,10.575C12.958,10.192 13.433,10 14,10L34,10C34.567,10 35.042,10.192 35.425,10.575C35.808,10.958 36,11.433 36,12L36,32C36,32.567 35.808,33.042 35.425,33.425C35.042,33.808 34.567,34 34,34C33.433,34 32.958,33.808 32.575,33.425C32.192,33.042 32,32.567 32,32L32,16.8Z" fill="#000000" fill-opacity="0.2"/>
</g>
</svg>
