<svg width="48" height="48" viewBox="0 0 48 48" fill="none" xmlns="http://www.w3.org/2000/svg" xmlns:xlink="http://www.w3.org/1999/xlink">
<mask id="mask_0_12_118" style="mask-type:alpha" maskUnits="userSpaceOnUse" x="-0.5" y="0" width="24" height="24">
<rect  x="-0.5" y="0" width="48" height="48" fill="#D9D9D9"/>
</mask>
<g mask="url(#mask_0_12_118)">
<path d="M31.5,16.8L13.7,34.6C13.333,34.967 12.867,35.15 12.3,35.15C11.733,35.15 11.267,34.967 10.9,34.6C10.533,34.233 10.35,33.767 10.35,33.2C10.35,32.633 10.533,32.167 10.9,31.8L28.7,14L13.5,14C12.933,14 12.458,13.808 12.075,13.425C11.692,13.042 11.5,12.567 11.5,12C11.5,11.433 11.692,10.958 12.075,10.575C12.458,10.192 12.933,10 13.5,10L33.5,10C34.067,10 34.542,10.192 34.925,10.575C35.308,10.958 35.5,11.433 35.5,12L35.5,32C35.5,32.567 35.308,33.042 34.925,33.425C34.542,33.808 34.067,34 33.5,34C32.933,34 32.458,33.808 32.075,33.425C31.692,33.042 31.5,32.567 31.5,32L31.5,16.8Z" fill="#FFFFFF"/>
</g>
</svg>
