<svg width="48" height="48" viewBox="0 0 48 48" fill="none" xmlns="http://www.w3.org/2000/svg" xmlns:xlink="http://www.w3.org/1999/xlink">
<mask id="mask_0_20_162" style="mask-type:alpha" maskUnits="userSpaceOnUse" x="0" y="0" width="24" height="24">
<rect  x="0" y="0" width="48" height="48" fill="#D9D9D9"/>
</mask>
<g mask="url(#mask_0_20_162)">
<path d="M19.1,30.3L36.05,13.35C36.45,12.95 36.925,12.75 37.475,12.75C38.025,12.75 38.5,12.95 38.9,13.35C39.3,13.75 39.5,14.225 39.5,14.775C39.5,15.325 39.3,15.8 38.9,16.2L20.5,34.6C20.1,35 19.633,35.2 19.1,35.2C18.567,35.2 18.1,35 17.7,34.6L9.1,26C8.7,25.6 8.508,25.125 8.525,24.575C8.542,24.025 8.75,23.55 9.15,23.15C9.55,22.75 10.025,22.55 10.575,22.55C11.125,22.55 11.6,22.75 12,23.15L19.1,30.3Z" fill="#0A0A0A"/>
<path d="M19.1,30.3L36.05,13.35C36.45,12.95 36.925,12.75 37.475,12.75C38.025,12.75 38.5,12.95 38.9,13.35C39.3,13.75 39.5,14.225 39.5,14.775C39.5,15.325 39.3,15.8 38.9,16.2L20.5,34.6C20.1,35 19.633,35.2 19.1,35.2C18.567,35.2 18.1,35 17.7,34.6L9.1,26C8.7,25.6 8.508,25.125 8.525,24.575C8.542,24.025 8.75,23.55 9.15,23.15C9.55,22.75 10.025,22.55 10.575,22.55C11.125,22.55 11.6,22.75 12,23.15L19.1,30.3Z" fill="#000000" fill-opacity="0.2"/>
<path d="M19.1,30.3L36.05,13.35C36.45,12.95 36.925,12.75 37.475,12.75C38.025,12.75 38.5,12.95 38.9,13.35C39.3,13.75 39.5,14.225 39.5,14.775C39.5,15.325 39.3,15.8 38.9,16.2L20.5,34.6C20.1,35 19.633,35.2 19.1,35.2C18.567,35.2 18.1,35 17.7,34.6L9.1,26C8.7,25.6 8.508,25.125 8.525,24.575C8.542,24.025 8.75,23.55 9.15,23.15C9.55,22.75 10.025,22.55 10.575,22.55C11.125,22.55 11.6,22.75 12,23.15L19.1,30.3Z" fill="#000000" fill-opacity="0.2"/>
<path d="M19.1,30.3L36.05,13.35C36.45,12.95 36.925,12.75 37.475,12.75C38.025,12.75 38.5,12.95 38.9,13.35C39.3,13.75 39.5,14.225 39.5,14.775C39.5,15.325 39.3,15.8 38.9,16.2L20.5,34.6C20.1,35 19.633,35.2 19.1,35.2C18.567,35.2 18.1,35 17.7,34.6L9.1,26C8.7,25.6 8.508,25.125 8.525,24.575C8.542,24.025 8.75,23.55 9.15,23.15C9.55,22.75 10.025,22.55 10.575,22.55C11.125,22.55 11.6,22.75 12,23.15L19.1,30.3Z" fill="#000000" fill-opacity="0.2"/>
<path d="M19.1,30.3L36.05,13.35C36.45,12.95 36.925,12.75 37.475,12.75C38.025,12.75 38.5,12.95 38.9,13.35C39.3,13.75 39.5,14.225 39.5,14.775C39.5,15.325 39.3,15.8 38.9,16.2L20.5,34.6C20.1,35 19.633,35.2 19.1,35.2C18.567,35.2 18.1,35 17.7,34.6L9.1,26C8.7,25.6 8.508,25.125 8.525,24.575C8.542,24.025 8.75,23.55 9.15,23.15C9.55,22.75 10.025,22.55 10.575,22.55C11.125,22.55 11.6,22.75 12,23.15L19.1,30.3Z" fill="#000000" fill-opacity="0.2"/>
</g>
</svg>
