<svg width="100" height="100" viewBox="0 0 100 100" fill="none" xmlns="http://www.w3.org/2000/svg" xmlns:xlink="http://www.w3.org/1999/xlink">
<mask id="mask_0_16_40" style="mask-type:alpha" maskUnits="userSpaceOnUse" x="0" y="0" width="50" height="50">
<rect  x="0" y="0" width="100" height="100" fill="#D9D9D9"/>
</mask>
<g mask="url(#mask_0_16_40)">
<path d="M33.333,56.875L33.333,25L45.833,25L45.833,56.875L39.583,51.042L33.333,56.875ZM54.167,63.125L54.167,8.333L66.667,8.333L66.667,50.625L54.167,63.125ZM12.5,77.5L12.5,41.667L25,41.667L25,65L12.5,77.5ZM12.5,87.708L39.375,60.833L54.167,73.542L77.5,50.208L70.833,50.208L70.833,41.875L91.667,41.875L91.667,62.708L83.333,62.708L83.333,56.042L54.583,84.792L39.792,72.083L24.167,87.708L12.5,87.708Z" fill="#0A0A0A"/>
<path d="M33.333,56.875L33.333,25L45.833,25L45.833,56.875L39.583,51.042L33.333,56.875ZM54.167,63.125L54.167,8.333L66.667,8.333L66.667,50.625L54.167,63.125ZM12.5,77.5L12.5,41.667L25,41.667L25,65L12.5,77.5ZM12.5,87.708L39.375,60.833L54.167,73.542L77.5,50.208L70.833,50.208L70.833,41.875L91.667,41.875L91.667,62.708L83.333,62.708L83.333,56.042L54.583,84.792L39.792,72.083L24.167,87.708L12.5,87.708Z" fill="#000000" fill-opacity="0.2"/>
<path d="M33.333,56.875L33.333,25L45.833,25L45.833,56.875L39.583,51.042L33.333,56.875ZM54.167,63.125L54.167,8.333L66.667,8.333L66.667,50.625L54.167,63.125ZM12.5,77.5L12.5,41.667L25,41.667L25,65L12.5,77.5ZM12.5,87.708L39.375,60.833L54.167,73.542L77.5,50.208L70.833,50.208L70.833,41.875L91.667,41.875L91.667,62.708L83.333,62.708L83.333,56.042L54.583,84.792L39.792,72.083L24.167,87.708L12.5,87.708Z" fill="#000000" fill-opacity="0.2"/>
<path d="M33.333,56.875L33.333,25L45.833,25L45.833,56.875L39.583,51.042L33.333,56.875ZM54.167,63.125L54.167,8.333L66.667,8.333L66.667,50.625L54.167,63.125ZM12.5,77.5L12.5,41.667L25,41.667L25,65L12.5,77.5ZM12.5,87.708L39.375,60.833L54.167,73.542L77.5,50.208L70.833,50.208L70.833,41.875L91.667,41.875L91.667,62.708L83.333,62.708L83.333,56.042L54.583,84.792L39.792,72.083L24.167,87.708L12.5,87.708Z" fill="#000000" fill-opacity="0.2"/>
<path d="M33.333,56.875L33.333,25L45.833,25L45.833,56.875L39.583,51.042L33.333,56.875ZM54.167,63.125L54.167,8.333L66.667,8.333L66.667,50.625L54.167,63.125ZM12.5,77.5L12.5,41.667L25,41.667L25,65L12.5,77.5ZM12.5,87.708L39.375,60.833L54.167,73.542L77.5,50.208L70.833,50.208L70.833,41.875L91.667,41.875L91.667,62.708L83.333,62.708L83.333,56.042L54.583,84.792L39.792,72.083L24.167,87.708L12.5,87.708Z" fill="#000000" fill-opacity="0.2"/>
</g>
</svg>
