<svg width="90" height="90" viewBox="0 0 90 90" fill="none" xmlns="http://www.w3.org/2000/svg" xmlns:xlink="http://www.w3.org/1999/xlink">
<mask id="mask_0_20_375" style="mask-type:alpha" maskUnits="userSpaceOnUse" x="0" y="0" width="45" height="45">
<rect  x="0" y="0" width="90" height="90" fill="#D9D9D9"/>
</mask>
<g mask="url(#mask_0_20_375)">
<path d="M13.125,71.25L7.5,65.625L35.625,37.5L50.625,52.5L56.906,45.375L35.906,25.969L13.125,48.75L7.5,43.125L35.625,15L62.25,39.469L77.25,22.5L82.5,27.75L67.688,44.438L82.5,58.125L76.875,63.75L62.438,50.438L50.625,63.75L35.625,48.75L13.125,71.25Z" fill="#0A0A0A"/>
<path d="M13.125,71.25L7.5,65.625L35.625,37.5L50.625,52.5L56.906,45.375L35.906,25.969L13.125,48.75L7.5,43.125L35.625,15L62.25,39.469L77.25,22.5L82.5,27.75L67.688,44.438L82.5,58.125L76.875,63.75L62.438,50.438L50.625,63.75L35.625,48.75L13.125,71.25Z" fill="#000000" fill-opacity="0.2"/>
<path d="M13.125,71.25L7.5,65.625L35.625,37.5L50.625,52.5L56.906,45.375L35.906,25.969L13.125,48.75L7.5,43.125L35.625,15L62.25,39.469L77.25,22.5L82.5,27.75L67.688,44.438L82.5,58.125L76.875,63.75L62.438,50.438L50.625,63.75L35.625,48.75L13.125,71.25Z" fill="#000000" fill-opacity="0.2"/>
<path d="M13.125,71.25L7.5,65.625L35.625,37.5L50.625,52.5L56.906,45.375L35.906,25.969L13.125,48.75L7.5,43.125L35.625,15L62.25,39.469L77.25,22.5L82.5,27.75L67.688,44.438L82.5,58.125L76.875,63.75L62.438,50.438L50.625,63.75L35.625,48.75L13.125,71.25Z" fill="#000000" fill-opacity="0.2"/>
<path d="M13.125,71.25L7.5,65.625L35.625,37.5L50.625,52.5L56.906,45.375L35.906,25.969L13.125,48.75L7.5,43.125L35.625,15L62.25,39.469L77.25,22.5L82.5,27.75L67.688,44.438L82.5,58.125L76.875,63.75L62.438,50.438L50.625,63.75L35.625,48.75L13.125,71.25Z" fill="#000000" fill-opacity="0.2"/>
</g>
</svg>
