<svg width="90" height="92" viewBox="0 0 90 92" fill="none" xmlns="http://www.w3.org/2000/svg" xmlns:xlink="http://www.w3.org/1999/xlink">
<mask id="mask_0_11_22" style="mask-type:alpha" maskUnits="userSpaceOnUse" x="0" y="1" width="45" height="45">
<rect  x="0" y="1" width="90" height="90" fill="#D9D9D9"/>
</mask>
<g mask="url(#mask_0_11_22)">
<path d="M13.125,72.25L7.5,66.625L35.625,38.5L50.625,53.5L56.906,46.375L35.906,26.969L13.125,49.75L7.5,44.125L35.625,16L62.25,40.469L77.25,23.5L82.5,28.75L67.688,45.438L82.5,59.125L76.875,64.75L62.438,51.438L50.625,64.75L35.625,49.75L13.125,72.25Z" fill="#0A0A0A"/>
<path d="M13.125,72.25L7.5,66.625L35.625,38.5L50.625,53.5L56.906,46.375L35.906,26.969L13.125,49.75L7.5,44.125L35.625,16L62.25,40.469L77.25,23.5L82.5,28.75L67.688,45.438L82.5,59.125L76.875,64.75L62.438,51.438L50.625,64.75L35.625,49.75L13.125,72.25Z" fill="#000000" fill-opacity="0.2"/>
<path d="M13.125,72.25L7.5,66.625L35.625,38.5L50.625,53.5L56.906,46.375L35.906,26.969L13.125,49.75L7.5,44.125L35.625,16L62.25,40.469L77.25,23.5L82.5,28.75L67.688,45.438L82.5,59.125L76.875,64.75L62.438,51.438L50.625,64.75L35.625,49.75L13.125,72.25Z" fill="#000000" fill-opacity="0.2"/>
<path d="M13.125,72.25L7.5,66.625L35.625,38.5L50.625,53.5L56.906,46.375L35.906,26.969L13.125,49.75L7.5,44.125L35.625,16L62.25,40.469L77.25,23.5L82.5,28.75L67.688,45.438L82.5,59.125L76.875,64.75L62.438,51.438L50.625,64.75L35.625,49.75L13.125,72.25Z" fill="#000000" fill-opacity="0.2"/>
<path d="M13.125,72.25L7.5,66.625L35.625,38.5L50.625,53.5L56.906,46.375L35.906,26.969L13.125,49.75L7.5,44.125L35.625,16L62.25,40.469L77.25,23.5L82.5,28.75L67.688,45.438L82.5,59.125L76.875,64.75L62.438,51.438L50.625,64.75L35.625,49.75L13.125,72.25Z" fill="#000000" fill-opacity="0.2"/>
</g>
</svg>
