<svg width="100" height="100" viewBox="0 0 100 100" fill="none" xmlns="http://www.w3.org/2000/svg" xmlns:xlink="http://www.w3.org/1999/xlink">
<mask id="mask_0_16_46" style="mask-type:alpha" maskUnits="userSpaceOnUse" x="0" y="0" width="50" height="50">
<rect  x="0" y="0" width="100" height="100" fill="#D9D9D9"/>
</mask>
<g mask="url(#mask_0_16_46)">
<path d="M50,7.813C53.403,11.91 56.458,15.712 59.167,19.219C61.875,22.726 64.306,26.076 66.458,29.271L91.667,10.417L91.667,50C91.667,55.764 90.573,61.18 88.385,66.25C86.198,71.32 83.229,75.729 79.479,79.479C75.729,83.229 71.32,86.198 66.25,88.385C61.181,90.573 55.764,91.667 50,91.667C44.236,91.667 38.82,90.573 33.75,88.385C28.681,86.198 24.271,83.229 20.521,79.479C16.771,75.729 13.802,71.32 11.615,66.25C9.427,61.18 8.333,55.764 8.333,50L8.333,10.417L33.542,29.271C35.695,26.146 38.125,22.813 40.833,19.271C43.542,15.729 46.597,11.91 50,7.813ZM16.667,27.083L16.667,50C16.667,53.055 17.066,55.99 17.865,58.802C18.663,61.615 19.757,64.236 21.146,66.667C21.007,65.972 20.92,65.295 20.885,64.635C20.851,63.976 20.833,63.264 20.833,62.5C20.833,58.542 21.476,54.462 22.76,50.26C24.045,46.059 26.146,41.458 29.063,36.458L16.667,27.083ZM50,20.833C42.361,30.139 36.979,38.264 33.854,45.208C30.729,52.153 29.167,57.917 29.167,62.5C29.167,68.264 31.198,73.177 35.26,77.24C39.323,81.302 44.236,83.333 50,83.333C55.764,83.333 60.677,81.302 64.74,77.24C68.802,73.177 70.833,68.264 70.833,62.5C70.833,57.917 69.271,52.118 66.146,45.104C63.021,38.09 57.639,30 50,20.833ZM83.333,27.083L70.938,36.354C73.854,41.354 75.955,45.955 77.24,50.156C78.524,54.358 79.167,58.472 79.167,62.5C79.167,63.264 79.149,63.976 79.115,64.635C79.08,65.295 78.993,65.972 78.854,66.667C80.243,64.236 81.337,61.615 82.135,58.802C82.934,55.99 83.333,53.055 83.333,50L83.333,27.083Z" fill="#FFFFFF"/>
</g>
</svg>
