<svg width="40" height="40" viewBox="0 0 40 40" fill="none" xmlns="http://www.w3.org/2000/svg" xmlns:xlink="http://www.w3.org/1999/xlink">
<path d="M20,0.109C9.014,0.109 0.109,9.015 0.109,20C0.109,30.986 9.014,39.891 20,39.891C30.986,39.891 39.891,30.986 39.891,20C39.891,9.015 30.986,0.109 20,0.109ZM15.131,28.245L11.103,28.245L11.103,15.282L15.131,15.282L15.131,28.245ZM13.092,13.691C11.82,13.691 10.997,12.79 10.997,11.675C10.997,10.538 11.845,9.663 13.144,9.663C14.443,9.663 15.239,10.538 15.263,11.675C15.263,12.79 14.443,13.691 13.092,13.691ZM29.842,28.245L25.814,28.245L25.814,21.061C25.814,19.389 25.23,18.254 23.773,18.254C22.66,18.254 21.999,19.022 21.707,19.762C21.6,20.025 21.573,20.398 21.573,20.769L21.573,28.243L17.543,28.243L17.543,19.416C17.543,17.798 17.491,16.445 17.437,15.28L20.937,15.28L21.121,17.081L21.202,17.081C21.732,16.236 23.031,14.988 25.205,14.988C27.855,14.988 29.842,16.764 29.842,20.581L29.842,28.245L29.842,28.245Z" fill="#0A0A0A"/>
<path d="M20,0.109C9.014,0.109 0.109,9.015 0.109,20C0.109,30.986 9.014,39.891 20,39.891C30.986,39.891 39.891,30.986 39.891,20C39.891,9.015 30.986,0.109 20,0.109ZM15.131,28.245L11.103,28.245L11.103,15.282L15.131,15.282L15.131,28.245ZM13.092,13.691C11.82,13.691 10.997,12.79 10.997,11.675C10.997,10.538 11.845,9.663 13.144,9.663C14.443,9.663 15.239,10.538 15.263,11.675C15.263,12.79 14.443,13.691 13.092,13.691ZM29.842,28.245L25.814,28.245L25.814,21.061C25.814,19.389 25.23,18.254 23.773,18.254C22.66,18.254 21.999,19.022 21.707,19.762C21.6,20.025 21.573,20.398 21.573,20.769L21.573,28.243L17.543,28.243L17.543,19.416C17.543,17.798 17.491,16.445 17.437,15.28L20.937,15.28L21.121,17.081L21.202,17.081C21.732,16.236 23.031,14.988 25.205,14.988C27.855,14.988 29.842,16.764 29.842,20.581L29.842,28.245L29.842,28.245Z" fill="#000000" fill-opacity="0.2"/>
<path d="M20,0.109C9.014,0.109 0.109,9.015 0.109,20C0.109,30.986 9.014,39.891 20,39.891C30.986,39.891 39.891,30.986 39.891,20C39.891,9.015 30.986,0.109 20,0.109ZM15.131,28.245L11.103,28.245L11.103,15.282L15.131,15.282L15.131,28.245ZM13.092,13.691C11.82,13.691 10.997,12.79 10.997,11.675C10.997,10.538 11.845,9.663 13.144,9.663C14.443,9.663 15.239,10.538 15.263,11.675C15.263,12.79 14.443,13.691 13.092,13.691ZM29.842,28.245L25.814,28.245L25.814,21.061C25.814,19.389 25.23,18.254 23.773,18.254C22.66,18.254 21.999,19.022 21.707,19.762C21.6,20.025 21.573,20.398 21.573,20.769L21.573,28.243L17.543,28.243L17.543,19.416C17.543,17.798 17.491,16.445 17.437,15.28L20.937,15.28L21.121,17.081L21.202,17.081C21.732,16.236 23.031,14.988 25.205,14.988C27.855,14.988 29.842,16.764 29.842,20.581L29.842,28.245L29.842,28.245Z" fill="#000000" fill-opacity="0.2"/>
<path d="M20,0.109C9.014,0.109 0.109,9.015 0.109,20C0.109,30.986 9.014,39.891 20,39.891C30.986,39.891 39.891,30.986 39.891,20C39.891,9.015 30.986,0.109 20,0.109ZM15.131,28.245L11.103,28.245L11.103,15.282L15.131,15.282L15.131,28.245ZM13.092,13.691C11.82,13.691 10.997,12.79 10.997,11.675C10.997,10.538 11.845,9.663 13.144,9.663C14.443,9.663 15.239,10.538 15.263,11.675C15.263,12.79 14.443,13.691 13.092,13.691ZM29.842,28.245L25.814,28.245L25.814,21.061C25.814,19.389 25.23,18.254 23.773,18.254C22.66,18.254 21.999,19.022 21.707,19.762C21.6,20.025 21.573,20.398 21.573,20.769L21.573,28.243L17.543,28.243L17.543,19.416C17.543,17.798 17.491,16.445 17.437,15.28L20.937,15.28L21.121,17.081L21.202,17.081C21.732,16.236 23.031,14.988 25.205,14.988C27.855,14.988 29.842,16.764 29.842,20.581L29.842,28.245L29.842,28.245Z" fill="#000000" fill-opacity="0.2"/>
<path d="M20,0.109C9.014,0.109 0.109,9.015 0.109,20C0.109,30.986 9.014,39.891 20,39.891C30.986,39.891 39.891,30.986 39.891,20C39.891,9.015 30.986,0.109 20,0.109ZM15.131,28.245L11.103,28.245L11.103,15.282L15.131,15.282L15.131,28.245ZM13.092,13.691C11.82,13.691 10.997,12.79 10.997,11.675C10.997,10.538 11.845,9.663 13.144,9.663C14.443,9.663 15.239,10.538 15.263,11.675C15.263,12.79 14.443,13.691 13.092,13.691ZM29.842,28.245L25.814,28.245L25.814,21.061C25.814,19.389 25.23,18.254 23.773,18.254C22.66,18.254 21.999,19.022 21.707,19.762C21.6,20.025 21.573,20.398 21.573,20.769L21.573,28.243L17.543,28.243L17.543,19.416C17.543,17.798 17.491,16.445 17.437,15.28L20.937,15.28L21.121,17.081L21.202,17.081C21.732,16.236 23.031,14.988 25.205,14.988C27.855,14.988 29.842,16.764 29.842,20.581L29.842,28.245L29.842,28.245Z" fill="#000000" fill-opacity="0.2"/>
</svg>
