<svg width="38" height="38" viewBox="0 0 38 38" fill="none" xmlns="http://www.w3.org/2000/svg" xmlns:xlink="http://www.w3.org/1999/xlink">
<path d="M24,18C24,19.187 23.648,20.347 22.989,21.333C22.33,22.32 21.392,23.089 20.296,23.543C19.2,23.997 17.993,24.116 16.829,23.885C15.666,23.653 14.596,23.082 13.757,22.243C12.918,21.404 12.347,20.334 12.115,19.171C11.884,18.007 12.003,16.8 12.457,15.704C12.911,14.608 13.68,13.67 14.667,13.011C15.653,12.352 16.813,12 18,12C19.59,12.005 21.113,12.639 22.237,13.763C23.361,14.887 23.995,16.41 24,18L24,18ZM36.75,9.75L36.75,26.25C36.75,29.035 35.644,31.705 33.675,33.675C31.705,35.644 29.035,36.75 26.25,36.75L9.75,36.75C6.965,36.75 4.295,35.644 2.325,33.675C0.356,31.705 -0.75,29.035 -0.75,26.25L-0.75,9.75C-0.75,6.965 0.356,4.295 2.325,2.325C4.295,0.356 6.965,-0.75 9.75,-0.75L26.25,-0.75C29.035,-0.75 31.705,0.356 33.675,2.325C35.644,4.295 36.75,6.965 36.75,9.75L36.75,9.75ZM27,18C27,16.22 26.472,14.48 25.483,13C24.494,11.52 23.089,10.366 21.444,9.685C19.8,9.004 17.99,8.826 16.244,9.173C14.498,9.52 12.895,10.377 11.636,11.636C10.377,12.895 9.52,14.498 9.173,16.244C8.826,17.99 9.004,19.8 9.685,21.444C10.366,23.089 11.52,24.494 13,25.483C14.48,26.472 16.22,27 18,27C20.387,27 22.676,26.052 24.364,24.364C26.052,22.676 27,20.387 27,18ZM30,8.25C30,7.805 29.868,7.37 29.621,7C29.374,6.63 29.022,6.342 28.611,6.171C28.2,6.001 27.748,5.956 27.311,6.043C26.875,6.13 26.474,6.344 26.159,6.659C25.844,6.974 25.63,7.375 25.543,7.811C25.456,8.247 25.501,8.7 25.671,9.111C25.842,9.522 26.13,9.874 26.5,10.121C26.87,10.368 27.305,10.5 27.75,10.5C28.347,10.5 28.919,10.263 29.341,9.841C29.763,9.419 30,8.847 30,8.25Z" fill="#0A0A0A"/>
<path d="M24,18C24,19.187 23.648,20.347 22.989,21.333C22.33,22.32 21.392,23.089 20.296,23.543C19.2,23.997 17.993,24.116 16.829,23.885C15.666,23.653 14.596,23.082 13.757,22.243C12.918,21.404 12.347,20.334 12.115,19.171C11.884,18.007 12.003,16.8 12.457,15.704C12.911,14.608 13.68,13.67 14.667,13.011C15.653,12.352 16.813,12 18,12C19.59,12.005 21.113,12.639 22.237,13.763C23.361,14.887 23.995,16.41 24,18L24,18ZM36.75,9.75L36.75,26.25C36.75,29.035 35.644,31.705 33.675,33.675C31.705,35.644 29.035,36.75 26.25,36.75L9.75,36.75C6.965,36.75 4.295,35.644 2.325,33.675C0.356,31.705 -0.75,29.035 -0.75,26.25L-0.75,9.75C-0.75,6.965 0.356,4.295 2.325,2.325C4.295,0.356 6.965,-0.75 9.75,-0.75L26.25,-0.75C29.035,-0.75 31.705,0.356 33.675,2.325C35.644,4.295 36.75,6.965 36.75,9.75L36.75,9.75ZM27,18C27,16.22 26.472,14.48 25.483,13C24.494,11.52 23.089,10.366 21.444,9.685C19.8,9.004 17.99,8.826 16.244,9.173C14.498,9.52 12.895,10.377 11.636,11.636C10.377,12.895 9.52,14.498 9.173,16.244C8.826,17.99 9.004,19.8 9.685,21.444C10.366,23.089 11.52,24.494 13,25.483C14.48,26.472 16.22,27 18,27C20.387,27 22.676,26.052 24.364,24.364C26.052,22.676 27,20.387 27,18ZM30,8.25C30,7.805 29.868,7.37 29.621,7C29.374,6.63 29.022,6.342 28.611,6.171C28.2,6.001 27.748,5.956 27.311,6.043C26.875,6.13 26.474,6.344 26.159,6.659C25.844,6.974 25.63,7.375 25.543,7.811C25.456,8.247 25.501,8.7 25.671,9.111C25.842,9.522 26.13,9.874 26.5,10.121C26.87,10.368 27.305,10.5 27.75,10.5C28.347,10.5 28.919,10.263 29.341,9.841C29.763,9.419 30,8.847 30,8.25Z" fill="#000000" fill-opacity="0.2"/>
<path d="M24,18C24,19.187 23.648,20.347 22.989,21.333C22.33,22.32 21.392,23.089 20.296,23.543C19.2,23.997 17.993,24.116 16.829,23.885C15.666,23.653 14.596,23.082 13.757,22.243C12.918,21.404 12.347,20.334 12.115,19.171C11.884,18.007 12.003,16.8 12.457,15.704C12.911,14.608 13.68,13.67 14.667,13.011C15.653,12.352 16.813,12 18,12C19.59,12.005 21.113,12.639 22.237,13.763C23.361,14.887 23.995,16.41 24,18L24,18ZM36.75,9.75L36.75,26.25C36.75,29.035 35.644,31.705 33.675,33.675C31.705,35.644 29.035,36.75 26.25,36.75L9.75,36.75C6.965,36.75 4.295,35.644 2.325,33.675C0.356,31.705 -0.75,29.035 -0.75,26.25L-0.75,9.75C-0.75,6.965 0.356,4.295 2.325,2.325C4.295,0.356 6.965,-0.75 9.75,-0.75L26.25,-0.75C29.035,-0.75 31.705,0.356 33.675,2.325C35.644,4.295 36.75,6.965 36.75,9.75L36.75,9.75ZM27,18C27,16.22 26.472,14.48 25.483,13C24.494,11.52 23.089,10.366 21.444,9.685C19.8,9.004 17.99,8.826 16.244,9.173C14.498,9.52 12.895,10.377 11.636,11.636C10.377,12.895 9.52,14.498 9.173,16.244C8.826,17.99 9.004,19.8 9.685,21.444C10.366,23.089 11.52,24.494 13,25.483C14.48,26.472 16.22,27 18,27C20.387,27 22.676,26.052 24.364,24.364C26.052,22.676 27,20.387 27,18ZM30,8.25C30,7.805 29.868,7.37 29.621,7C29.374,6.63 29.022,6.342 28.611,6.171C28.2,6.001 27.748,5.956 27.311,6.043C26.875,6.13 26.474,6.344 26.159,6.659C25.844,6.974 25.63,7.375 25.543,7.811C25.456,8.247 25.501,8.7 25.671,9.111C25.842,9.522 26.13,9.874 26.5,10.121C26.87,10.368 27.305,10.5 27.75,10.5C28.347,10.5 28.919,10.263 29.341,9.841C29.763,9.419 30,8.847 30,8.25Z" fill="#000000" fill-opacity="0.2"/>
<path d="M24,18C24,19.187 23.648,20.347 22.989,21.333C22.33,22.32 21.392,23.089 20.296,23.543C19.2,23.997 17.993,24.116 16.829,23.885C15.666,23.653 14.596,23.082 13.757,22.243C12.918,21.404 12.347,20.334 12.115,19.171C11.884,18.007 12.003,16.8 12.457,15.704C12.911,14.608 13.68,13.67 14.667,13.011C15.653,12.352 16.813,12 18,12C19.59,12.005 21.113,12.639 22.237,13.763C23.361,14.887 23.995,16.41 24,18L24,18ZM36.75,9.75L36.75,26.25C36.75,29.035 35.644,31.705 33.675,33.675C31.705,35.644 29.035,36.75 26.25,36.75L9.75,36.75C6.965,36.75 4.295,35.644 2.325,33.675C0.356,31.705 -0.75,29.035 -0.75,26.25L-0.75,9.75C-0.75,6.965 0.356,4.295 2.325,2.325C4.295,0.356 6.965,-0.75 9.75,-0.75L26.25,-0.75C29.035,-0.75 31.705,0.356 33.675,2.325C35.644,4.295 36.75,6.965 36.75,9.75L36.75,9.75ZM27,18C27,16.22 26.472,14.48 25.483,13C24.494,11.52 23.089,10.366 21.444,9.685C19.8,9.004 17.99,8.826 16.244,9.173C14.498,9.52 12.895,10.377 11.636,11.636C10.377,12.895 9.52,14.498 9.173,16.244C8.826,17.99 9.004,19.8 9.685,21.444C10.366,23.089 11.52,24.494 13,25.483C14.48,26.472 16.22,27 18,27C20.387,27 22.676,26.052 24.364,24.364C26.052,22.676 27,20.387 27,18ZM30,8.25C30,7.805 29.868,7.37 29.621,7C29.374,6.63 29.022,6.342 28.611,6.171C28.2,6.001 27.748,5.956 27.311,6.043C26.875,6.13 26.474,6.344 26.159,6.659C25.844,6.974 25.63,7.375 25.543,7.811C25.456,8.247 25.501,8.7 25.671,9.111C25.842,9.522 26.13,9.874 26.5,10.121C26.87,10.368 27.305,10.5 27.75,10.5C28.347,10.5 28.919,10.263 29.341,9.841C29.763,9.419 30,8.847 30,8.25Z" fill="#000000" fill-opacity="0.2"/>
<path d="M24,18C24,19.187 23.648,20.347 22.989,21.333C22.33,22.32 21.392,23.089 20.296,23.543C19.2,23.997 17.993,24.116 16.829,23.885C15.666,23.653 14.596,23.082 13.757,22.243C12.918,21.404 12.347,20.334 12.115,19.171C11.884,18.007 12.003,16.8 12.457,15.704C12.911,14.608 13.68,13.67 14.667,13.011C15.653,12.352 16.813,12 18,12C19.59,12.005 21.113,12.639 22.237,13.763C23.361,14.887 23.995,16.41 24,18L24,18ZM36.75,9.75L36.75,26.25C36.75,29.035 35.644,31.705 33.675,33.675C31.705,35.644 29.035,36.75 26.25,36.75L9.75,36.75C6.965,36.75 4.295,35.644 2.325,33.675C0.356,31.705 -0.75,29.035 -0.75,26.25L-0.75,9.75C-0.75,6.965 0.356,4.295 2.325,2.325C4.295,0.356 6.965,-0.75 9.75,-0.75L26.25,-0.75C29.035,-0.75 31.705,0.356 33.675,2.325C35.644,4.295 36.75,6.965 36.75,9.75L36.75,9.75ZM27,18C27,16.22 26.472,14.48 25.483,13C24.494,11.52 23.089,10.366 21.444,9.685C19.8,9.004 17.99,8.826 16.244,9.173C14.498,9.52 12.895,10.377 11.636,11.636C10.377,12.895 9.52,14.498 9.173,16.244C8.826,17.99 9.004,19.8 9.685,21.444C10.366,23.089 11.52,24.494 13,25.483C14.48,26.472 16.22,27 18,27C20.387,27 22.676,26.052 24.364,24.364C26.052,22.676 27,20.387 27,18ZM30,8.25C30,7.805 29.868,7.37 29.621,7C29.374,6.63 29.022,6.342 28.611,6.171C28.2,6.001 27.748,5.956 27.311,6.043C26.875,6.13 26.474,6.344 26.159,6.659C25.844,6.974 25.63,7.375 25.543,7.811C25.456,8.247 25.501,8.7 25.671,9.111C25.842,9.522 26.13,9.874 26.5,10.121C26.87,10.368 27.305,10.5 27.75,10.5C28.347,10.5 28.919,10.263 29.341,9.841C29.763,9.419 30,8.847 30,8.25Z" fill="#000000" fill-opacity="0.2"/>
</svg>
