<svg width="100" height="100" viewBox="0 0 100 100" fill="none" xmlns="http://www.w3.org/2000/svg" xmlns:xlink="http://www.w3.org/1999/xlink">
<mask id="mask_0_16_52" style="mask-type:alpha" maskUnits="userSpaceOnUse" x="0" y="0" width="50" height="50">
<rect  x="0" y="0" width="100" height="100" fill="#D9D9D9"/>
</mask>
<g mask="url(#mask_0_16_52)">
<path d="M66.667,54.167L49.375,37.292C47.222,35.208 45.399,32.899 43.906,30.364C42.413,27.83 41.667,25.069 41.667,22.083C41.667,18.264 43.003,15.017 45.677,12.344C48.351,9.67 51.597,8.333 55.417,8.333C57.639,8.333 59.722,8.802 61.667,9.74C63.611,10.677 65.278,11.944 66.667,13.542C68.055,11.944 69.722,10.677 71.667,9.74C73.611,8.802 75.694,8.333 77.917,8.333C81.736,8.333 84.983,9.67 87.656,12.344C90.33,15.017 91.667,18.264 91.667,22.083C91.667,25.069 90.937,27.83 89.479,30.364C88.021,32.899 86.215,35.208 84.062,37.292L66.667,54.167ZM66.667,42.5L78.021,31.354C79.34,30.035 80.555,28.628 81.667,27.135C82.778,25.642 83.333,23.958 83.333,22.083C83.333,20.555 82.812,19.271 81.771,18.229C80.729,17.187 79.444,16.667 77.917,16.667C76.944,16.667 76.024,16.858 75.156,17.239C74.288,17.621 73.542,18.194 72.917,18.958L66.667,26.458L60.417,18.958C59.792,18.194 59.045,17.621 58.177,17.239C57.309,16.858 56.389,16.667 55.417,16.667C53.889,16.667 52.604,17.187 51.562,18.229C50.521,19.271 50,20.555 50,22.083C50,23.958 50.555,25.642 51.667,27.135C52.778,28.628 53.993,30.035 55.312,31.354L66.667,42.5ZM29.167,77.083L58.125,85L82.917,77.292C82.569,76.667 82.066,76.128 81.406,75.677C80.746,75.226 80,75 79.167,75L58.125,75C56.25,75 54.757,74.93 53.646,74.792C52.535,74.653 51.389,74.375 50.208,73.958L40.521,70.729L42.812,62.604L51.25,65.417C52.43,65.764 53.819,66.042 55.417,66.25C57.014,66.458 59.375,66.597 62.5,66.667C62.5,65.903 62.274,65.173 61.823,64.479C61.371,63.785 60.833,63.333 60.208,63.125L35.833,54.167L29.167,54.167L29.167,77.083ZM4.167,91.667L4.167,45.833L35.833,45.833C36.319,45.833 36.805,45.885 37.292,45.989C37.778,46.094 38.229,46.215 38.646,46.354L63.125,55.417C65.417,56.25 67.274,57.708 68.698,59.792C70.121,61.875 70.833,64.167 70.833,66.667L79.167,66.667C82.639,66.667 85.59,67.812 88.021,70.104C90.451,72.396 91.667,75.417 91.667,79.167L91.667,83.333L58.333,93.75L29.167,85.625L29.167,91.667L4.167,91.667ZM12.5,83.333L20.833,83.333L20.833,54.167L12.5,54.167L12.5,83.333Z" fill="#0A0A0A"/>
<path d="M66.667,54.167L49.375,37.292C47.222,35.208 45.399,32.899 43.906,30.364C42.413,27.83 41.667,25.069 41.667,22.083C41.667,18.264 43.003,15.017 45.677,12.344C48.351,9.67 51.597,8.333 55.417,8.333C57.639,8.333 59.722,8.802 61.667,9.74C63.611,10.677 65.278,11.944 66.667,13.542C68.055,11.944 69.722,10.677 71.667,9.74C73.611,8.802 75.694,8.333 77.917,8.333C81.736,8.333 84.983,9.67 87.656,12.344C90.33,15.017 91.667,18.264 91.667,22.083C91.667,25.069 90.937,27.83 89.479,30.364C88.021,32.899 86.215,35.208 84.062,37.292L66.667,54.167ZM66.667,42.5L78.021,31.354C79.34,30.035 80.555,28.628 81.667,27.135C82.778,25.642 83.333,23.958 83.333,22.083C83.333,20.555 82.812,19.271 81.771,18.229C80.729,17.187 79.444,16.667 77.917,16.667C76.944,16.667 76.024,16.858 75.156,17.239C74.288,17.621 73.542,18.194 72.917,18.958L66.667,26.458L60.417,18.958C59.792,18.194 59.045,17.621 58.177,17.239C57.309,16.858 56.389,16.667 55.417,16.667C53.889,16.667 52.604,17.187 51.562,18.229C50.521,19.271 50,20.555 50,22.083C50,23.958 50.555,25.642 51.667,27.135C52.778,28.628 53.993,30.035 55.312,31.354L66.667,42.5ZM29.167,77.083L58.125,85L82.917,77.292C82.569,76.667 82.066,76.128 81.406,75.677C80.746,75.226 80,75 79.167,75L58.125,75C56.25,75 54.757,74.93 53.646,74.792C52.535,74.653 51.389,74.375 50.208,73.958L40.521,70.729L42.812,62.604L51.25,65.417C52.43,65.764 53.819,66.042 55.417,66.25C57.014,66.458 59.375,66.597 62.5,66.667C62.5,65.903 62.274,65.173 61.823,64.479C61.371,63.785 60.833,63.333 60.208,63.125L35.833,54.167L29.167,54.167L29.167,77.083ZM4.167,91.667L4.167,45.833L35.833,45.833C36.319,45.833 36.805,45.885 37.292,45.989C37.778,46.094 38.229,46.215 38.646,46.354L63.125,55.417C65.417,56.25 67.274,57.708 68.698,59.792C70.121,61.875 70.833,64.167 70.833,66.667L79.167,66.667C82.639,66.667 85.59,67.812 88.021,70.104C90.451,72.396 91.667,75.417 91.667,79.167L91.667,83.333L58.333,93.75L29.167,85.625L29.167,91.667L4.167,91.667ZM12.5,83.333L20.833,83.333L20.833,54.167L12.5,54.167L12.5,83.333Z" fill="#000000" fill-opacity="0.2"/>
<path d="M66.667,54.167L49.375,37.292C47.222,35.208 45.399,32.899 43.906,30.364C42.413,27.83 41.667,25.069 41.667,22.083C41.667,18.264 43.003,15.017 45.677,12.344C48.351,9.67 51.597,8.333 55.417,8.333C57.639,8.333 59.722,8.802 61.667,9.74C63.611,10.677 65.278,11.944 66.667,13.542C68.055,11.944 69.722,10.677 71.667,9.74C73.611,8.802 75.694,8.333 77.917,8.333C81.736,8.333 84.983,9.67 87.656,12.344C90.33,15.017 91.667,18.264 91.667,22.083C91.667,25.069 90.937,27.83 89.479,30.364C88.021,32.899 86.215,35.208 84.062,37.292L66.667,54.167ZM66.667,42.5L78.021,31.354C79.34,30.035 80.555,28.628 81.667,27.135C82.778,25.642 83.333,23.958 83.333,22.083C83.333,20.555 82.812,19.271 81.771,18.229C80.729,17.187 79.444,16.667 77.917,16.667C76.944,16.667 76.024,16.858 75.156,17.239C74.288,17.621 73.542,18.194 72.917,18.958L66.667,26.458L60.417,18.958C59.792,18.194 59.045,17.621 58.177,17.239C57.309,16.858 56.389,16.667 55.417,16.667C53.889,16.667 52.604,17.187 51.562,18.229C50.521,19.271 50,20.555 50,22.083C50,23.958 50.555,25.642 51.667,27.135C52.778,28.628 53.993,30.035 55.312,31.354L66.667,42.5ZM29.167,77.083L58.125,85L82.917,77.292C82.569,76.667 82.066,76.128 81.406,75.677C80.746,75.226 80,75 79.167,75L58.125,75C56.25,75 54.757,74.93 53.646,74.792C52.535,74.653 51.389,74.375 50.208,73.958L40.521,70.729L42.812,62.604L51.25,65.417C52.43,65.764 53.819,66.042 55.417,66.25C57.014,66.458 59.375,66.597 62.5,66.667C62.5,65.903 62.274,65.173 61.823,64.479C61.371,63.785 60.833,63.333 60.208,63.125L35.833,54.167L29.167,54.167L29.167,77.083ZM4.167,91.667L4.167,45.833L35.833,45.833C36.319,45.833 36.805,45.885 37.292,45.989C37.778,46.094 38.229,46.215 38.646,46.354L63.125,55.417C65.417,56.25 67.274,57.708 68.698,59.792C70.121,61.875 70.833,64.167 70.833,66.667L79.167,66.667C82.639,66.667 85.59,67.812 88.021,70.104C90.451,72.396 91.667,75.417 91.667,79.167L91.667,83.333L58.333,93.75L29.167,85.625L29.167,91.667L4.167,91.667ZM12.5,83.333L20.833,83.333L20.833,54.167L12.5,54.167L12.5,83.333Z" fill="#000000" fill-opacity="0.2"/>
<path d="M66.667,54.167L49.375,37.292C47.222,35.208 45.399,32.899 43.906,30.364C42.413,27.83 41.667,25.069 41.667,22.083C41.667,18.264 43.003,15.017 45.677,12.344C48.351,9.67 51.597,8.333 55.417,8.333C57.639,8.333 59.722,8.802 61.667,9.74C63.611,10.677 65.278,11.944 66.667,13.542C68.055,11.944 69.722,10.677 71.667,9.74C73.611,8.802 75.694,8.333 77.917,8.333C81.736,8.333 84.983,9.67 87.656,12.344C90.33,15.017 91.667,18.264 91.667,22.083C91.667,25.069 90.937,27.83 89.479,30.364C88.021,32.899 86.215,35.208 84.062,37.292L66.667,54.167ZM66.667,42.5L78.021,31.354C79.34,30.035 80.555,28.628 81.667,27.135C82.778,25.642 83.333,23.958 83.333,22.083C83.333,20.555 82.812,19.271 81.771,18.229C80.729,17.187 79.444,16.667 77.917,16.667C76.944,16.667 76.024,16.858 75.156,17.239C74.288,17.621 73.542,18.194 72.917,18.958L66.667,26.458L60.417,18.958C59.792,18.194 59.045,17.621 58.177,17.239C57.309,16.858 56.389,16.667 55.417,16.667C53.889,16.667 52.604,17.187 51.562,18.229C50.521,19.271 50,20.555 50,22.083C50,23.958 50.555,25.642 51.667,27.135C52.778,28.628 53.993,30.035 55.312,31.354L66.667,42.5ZM29.167,77.083L58.125,85L82.917,77.292C82.569,76.667 82.066,76.128 81.406,75.677C80.746,75.226 80,75 79.167,75L58.125,75C56.25,75 54.757,74.93 53.646,74.792C52.535,74.653 51.389,74.375 50.208,73.958L40.521,70.729L42.812,62.604L51.25,65.417C52.43,65.764 53.819,66.042 55.417,66.25C57.014,66.458 59.375,66.597 62.5,66.667C62.5,65.903 62.274,65.173 61.823,64.479C61.371,63.785 60.833,63.333 60.208,63.125L35.833,54.167L29.167,54.167L29.167,77.083ZM4.167,91.667L4.167,45.833L35.833,45.833C36.319,45.833 36.805,45.885 37.292,45.989C37.778,46.094 38.229,46.215 38.646,46.354L63.125,55.417C65.417,56.25 67.274,57.708 68.698,59.792C70.121,61.875 70.833,64.167 70.833,66.667L79.167,66.667C82.639,66.667 85.59,67.812 88.021,70.104C90.451,72.396 91.667,75.417 91.667,79.167L91.667,83.333L58.333,93.75L29.167,85.625L29.167,91.667L4.167,91.667ZM12.5,83.333L20.833,83.333L20.833,54.167L12.5,54.167L12.5,83.333Z" fill="#000000" fill-opacity="0.2"/>
<path d="M66.667,54.167L49.375,37.292C47.222,35.208 45.399,32.899 43.906,30.364C42.413,27.83 41.667,25.069 41.667,22.083C41.667,18.264 43.003,15.017 45.677,12.344C48.351,9.67 51.597,8.333 55.417,8.333C57.639,8.333 59.722,8.802 61.667,9.74C63.611,10.677 65.278,11.944 66.667,13.542C68.055,11.944 69.722,10.677 71.667,9.74C73.611,8.802 75.694,8.333 77.917,8.333C81.736,8.333 84.983,9.67 87.656,12.344C90.33,15.017 91.667,18.264 91.667,22.083C91.667,25.069 90.937,27.83 89.479,30.364C88.021,32.899 86.215,35.208 84.062,37.292L66.667,54.167ZM66.667,42.5L78.021,31.354C79.34,30.035 80.555,28.628 81.667,27.135C82.778,25.642 83.333,23.958 83.333,22.083C83.333,20.555 82.812,19.271 81.771,18.229C80.729,17.187 79.444,16.667 77.917,16.667C76.944,16.667 76.024,16.858 75.156,17.239C74.288,17.621 73.542,18.194 72.917,18.958L66.667,26.458L60.417,18.958C59.792,18.194 59.045,17.621 58.177,17.239C57.309,16.858 56.389,16.667 55.417,16.667C53.889,16.667 52.604,17.187 51.562,18.229C50.521,19.271 50,20.555 50,22.083C50,23.958 50.555,25.642 51.667,27.135C52.778,28.628 53.993,30.035 55.312,31.354L66.667,42.5ZM29.167,77.083L58.125,85L82.917,77.292C82.569,76.667 82.066,76.128 81.406,75.677C80.746,75.226 80,75 79.167,75L58.125,75C56.25,75 54.757,74.93 53.646,74.792C52.535,74.653 51.389,74.375 50.208,73.958L40.521,70.729L42.812,62.604L51.25,65.417C52.43,65.764 53.819,66.042 55.417,66.25C57.014,66.458 59.375,66.597 62.5,66.667C62.5,65.903 62.274,65.173 61.823,64.479C61.371,63.785 60.833,63.333 60.208,63.125L35.833,54.167L29.167,54.167L29.167,77.083ZM4.167,91.667L4.167,45.833L35.833,45.833C36.319,45.833 36.805,45.885 37.292,45.989C37.778,46.094 38.229,46.215 38.646,46.354L63.125,55.417C65.417,56.25 67.274,57.708 68.698,59.792C70.121,61.875 70.833,64.167 70.833,66.667L79.167,66.667C82.639,66.667 85.59,67.812 88.021,70.104C90.451,72.396 91.667,75.417 91.667,79.167L91.667,83.333L58.333,93.75L29.167,85.625L29.167,91.667L4.167,91.667ZM12.5,83.333L20.833,83.333L20.833,54.167L12.5,54.167L12.5,83.333Z" fill="#000000" fill-opacity="0.2"/>
</g>
</svg>
